<svg id="Layer_1" data-name="Layer 1" xmlns="http://www.w3.org/2000/svg" width="455.21" height="46.9"><defs><style>.cls-1{fill:#fff;opacity:.04}</style></defs><path class="cls-1" d="M42.5 10.18v43h-6.4V50H13.9v3.25H7.75V10.18zm-28.6 6v10.75h22.2V16.18zM36.1 44V32.83H13.9V44zM81.7 22.88C85.6 30.38 92 37.28 99.15 41a25.28 25.28 0 00-4.6 5.4 40.91 40.91 0 01-8.15-6.7v5.7h-8.3v8.45h-6.25v-8.42h-8.6v-5.25a44.6 44.6 0 01-7.8 6.4 29.4 29.4 0 00-4.35-4.95c7-3.85 13.35-11.05 17.2-18.75H53.05v-6h18.8V7.23h6.25v9.65h19v6zm-9.85 16.5v-10.9A58.26 58.26 0 0164 39.38zm14.2 0a55.73 55.73 0 01-8-11v11zM120.2 20.33h-18.55v-4.7h18.55zm-1.45 31.55h-9.9v1.95h-5v-17h14.9zm-.35-24.65H104v-4.45h14.4zm-14.4 2.5h14.4v4.5H104zm14.4-16.5h-14.1v-4.5h14.1zm-9.55 28.25v5.7h4.8v-5.7zm39.65-14.15v5.2h-28.6v-5.2h6.15c.3-1.55.6-3.3.9-5.1h-4.4v-5.05h5.2c.15-1.2.35-2.35.5-3.5h-6.5v-5.1h25.05v5.1h-12.75l-.5 3.5h10.75v10.15zm-25 7.85h21.9v18.5h-5.85v-1.75H129.1v2h-5.6zm5.6 5.3v6.2h10.45v-6.2zm3.6-18.25c-.3 1.8-.6 3.55-.9 5.1h6.75v-5.1zM189.55 15.63a23.63 23.63 0 00-1.75 3.1 73.51 73.51 0 01-7.8 13.75 140.56 140.56 0 0114 14.3l-5.7 4.95a114 114 0 00-12.6-14.15 65.86 65.86 0 01-18.8 14.05l-5.15-5.4a56.65 56.65 0 0020.5-14.35c3.3-3.75 6.35-8.7 7.45-12.25h-17.05c-2.1 0-4.85.3-5.9.35v-7.1a55.86 55.86 0 005.9.35h17.6a18.05 18.05 0 005.2-.65zM232.15 50.63v-2.6H209.4c-2 0-4.8.15-6.45.3v-7.15c1.75.15 4 .3 6.25.3h23.05v-20.7H209.8c-2.1 0-4.8.1-6.2.2V14c1.85.2 4.45.3 6.2.3H235c1.45 0 3.55-.05 4.4-.1 0 1.15-.15 3.15-.15 4.6v25.9c0 1.75.1 4.4.2 5.9zM259.9 33.83l-6.1 2.3a101 101 0 00-4.55-11.55l6-2.15c1.25 2.57 3.65 8.57 4.65 11.4zm25.4-10.4c-.6 1.6-.9 2.65-1.2 3.65a40.32 40.32 0 01-6.8 14.65 39 39 0 01-16.75 12.4l-5.25-5.35c5.5-1.45 12.45-5.25 16.6-10.45 3.4-4.25 5.8-10.9 6.35-17.15zm-14.3 7.3l-6 2.1a83.28 83.28 0 00-4.05-11.1l6-1.95c.85 2.15 3.3 8.65 4.05 10.95zM323.45 38a144.42 144.42 0 00-18.05-7.45v14.18c0 1.45.25 5 .45 7h-7.8a53.5 53.5 0 00.5-7V16a34.87 34.87 0 00-.5-6.05h7.8a54.38 54.38 0 00-.45 6.05v7.35a164.06 164.06 0 0120.91 7.75zM372.35 25.68a18.52 18.52 0 00-1 2.1A35.93 35.93 0 01364 41.63a37.44 37.44 0 01-17.85 10.8l-5-5.65c7.55-1.55 13.55-4.85 17.35-8.75a21.69 21.69 0 005.15-8.65H339.5c-1.2 0-3.7.05-5.8.25v-6.5c2.1.2 4.25.3 5.8.3h24.75a10.55 10.55 0 003.65-.5zm-34.05-14.5a42.15 42.15 0 005.2.25h19.25a47.14 47.14 0 005.4-.25v6.45a89.6 89.6 0 00-5.5-.15H343.5c-1.6 0-3.75.05-5.2.15zM398.5 38.28c8.5-5.05 15.06-12.7 18.2-19.45l3.9 7.05a53.08 53.08 0 01-18.5 18.5 54.15 54.15 0 01-18.55 7l-4.2-6.6a51.53 51.53 0 0019.15-6.5zm0-16.2l-5.1 5.25a104 104 0 00-12.5-10.8l4.7-5a105 105 0 0112.9 10.55zM438.6 24a174.15 174.15 0 0120.91 7.8l-2.8 7a134.07 134.07 0 00-18.11-7.45v14.13c0 1.4.25 4.9.5 7h-7.85a54.14 54.14 0 00.5-7V16.73a35.28 35.28 0 00-.5-6.05h7.8a54.38 54.38 0 00-.45 6.05zm13.3-2.2a40.74 40.74 0 00-4.4-7.7l4.21-1.8c1.39 2.1 3.39 5.3 4.55 7.55zm6.86-2.8a46.14 46.14 0 00-4.66-7.5l4.16-1.95A66.22 66.22 0 01463 17z" transform="translate(-7.75 -7.23)"/></svg>