<svg data-name="Layer 1" xmlns="http://www.w3.org/2000/svg" width="82.2" height="83.44"><ellipse cx="41.34" cy="41.72" rx="38.12" ry="41.72" fill="#fff"/><path d="M0 41.57a41.12 41.12 0 0128-39 24.49 24.49 0 00-.83 40.86L43.6 56.21a3.89 3.89 0 004.77-6.14L30.76 36.38a3.92 3.92 0 00-.5-.33 16.74 16.74 0 1123.39-1.68l5.74 5.2a24.48 24.48 0 00-5.21-37 41.12 41.12 0 010 78 24.49 24.49 0 00.83-40.86L38.6 26.93a3.89 3.89 0 00-4.77 6.14l17.61 13.69a3.08 3.08 0 00.5.33 16.74 16.74 0 11-23.39 1.68l-5.74-5.2a24.48 24.48 0 005.21 37 41.12 41.12 0 01-28-39" fill="#2f549c" fill-rule="evenodd"/></svg>