<svg id="Layer_1" data-name="Layer 1" xmlns="http://www.w3.org/2000/svg" width="456.02" height="165.11"><defs><linearGradient id="linear-gradient" x1="1.62" y1="82.56" x2="169.47" y2="82.55" gradientUnits="userSpaceOnUse"><stop offset="0" stop-color="#dd1f26"/><stop offset=".16" stop-color="#f37b35"/><stop offset=".33" stop-color="#f1d456"/><stop offset=".51" stop-color="#3fb772"/><stop offset=".68" stop-color="#61c6cc"/><stop offset=".83" stop-color="#2a7cbf"/><stop offset="1" stop-color="#483b92"/></linearGradient><clipPath id="clip-path" transform="translate(-8.64 -4.39)"><path d="M147.35 33.68a78.09 78.09 0 00-108.79 0 74.22 74.22 0 000 106.52 78.09 78.09 0 00108.79 0 74.19 74.19 0 000-106.52M93 4.39a85 85 0 0159.62 24.18 81.35 81.35 0 010 116.75 85.59 85.59 0 01-119.24 0 81.33 81.33 0 010-116.75A85 85 0 0193 4.39z" fill="none" clip-rule="evenodd"/></clipPath><style>.cls-2{fill:#f2f2f2}</style></defs><ellipse class="cls-2" cx="82.76" cy="81.62" rx="78.49" ry="79.69"/><path d="M93 19.38c30.56 0 56.51 19.38 65.72 46.27a41.79 41.79 0 00-68.89-1.37L68.27 91.37a6.35 6.35 0 001.15 9 6.67 6.67 0 009.2-1.12l23.09-29.08a6.91 6.91 0 00.55-.82 28.39 28.39 0 0121.5-9.74C139.36 59.61 152 72 152 87.25s-12.64 27.63-28.23 27.63a28.45 28.45 0 01-18.68-6.88l-8.77 9.48a41.84 41.84 0 0062.36-8.6c-9.21 26.89-35.16 46.27-65.72 46.27s-56.51-19.38-65.73-46.27a41.79 41.79 0 0068.89 1.37l21.52-27.09a6.35 6.35 0 00-1.15-9 6.66 6.66 0 00-9.19 1.12l-23.1 29.04a6.91 6.91 0 00-.55.82 28.41 28.41 0 01-21.51 9.74c-15.59 0-28.23-12.37-28.23-27.63s12.64-27.64 28.23-27.64a28.45 28.45 0 0118.68 6.92l8.77-9.48a41.84 41.84 0 00-62.36 8.6C36.45 38.76 62.39 19.38 93 19.38" transform="translate(-8.64 -4.39)" fill="#ed2530" fill-rule="evenodd"/><g clip-path="url(#clip-path)"><path fill="url(#linear-gradient)" d="M0 0h168.63v165.11H0z"/></g><g id="NIHONGO_CONNECTION" data-name="NIHONGO CONNECTION"><path class="cls-2" d="M221.88 69V48.43h9.63v37.88h-7.38L206.54 66v20.3H197V48.43h7zM239.16 86.31V48.43H249v37.88zM266.44 86.31h-9.8V48.43h9.8v14.45H280V48.43h9.85v37.88H280V72.06h-13.56zM315.75 86.93a20.12 20.12 0 01-14.5-5.64 18.68 18.68 0 01-5.76-13.9 18.77 18.77 0 015.81-13.94 21.13 21.13 0 0128.85 0A18.73 18.73 0 01336 67.39a18.7 18.7 0 01-5.81 13.9 19.76 19.76 0 01-14.44 5.64zm-.05-9.49a9.92 9.92 0 007.23-2.87 9.7 9.7 0 002.93-7.23 9.92 9.92 0 00-3-7.23 10.25 10.25 0 00-14.29.06 10.31 10.31 0 000 14.4 9.84 9.84 0 007.13 2.87zM366.54 69V48.43h9.63v37.88h-7.38L351.2 66v20.3h-9.58V48.43h7zM402.3 86.87q-9 0-14.76-5.48a18.66 18.66 0 01-5.71-14 18.44 18.44 0 015.92-14.09 21 21 0 0114.86-5.54 24.17 24.17 0 018.49 1.51 20.33 20.33 0 016.75 4l-6.23 7.12a13.58 13.58 0 00-9.11-3.48 10.45 10.45 0 00-7.7 3 10.12 10.12 0 00-3 7.38 10.43 10.43 0 002.93 7.38 10.21 10.21 0 007.75 3.08 14.23 14.23 0 004.84-.85 11.17 11.17 0 003.85-2.18v-3.28h-8.79v-8.2h17.64v16.41a24.91 24.91 0 01-17.73 7.22zM444.45 86.93a20.13 20.13 0 01-14.51-5.64 18.68 18.68 0 01-5.76-13.9A18.74 18.74 0 01430 53.45a21.13 21.13 0 0128.85 0 18.77 18.77 0 015.81 13.94 18.74 18.74 0 01-5.81 13.9 19.77 19.77 0 01-14.4 5.64zm-.06-9.49a9.89 9.89 0 007.23-2.87 9.7 9.7 0 002.93-7.23 10 10 0 00-3-7.23 10.26 10.26 0 00-14.3.06 10.31 10.31 0 000 14.4 9.85 9.85 0 007.14 2.87zM205.48 121.49a11.26 11.26 0 01-8-3 10.45 10.45 0 01-3.24-7.93 10.62 10.62 0 013.27-8 11.09 11.09 0 018-3.17 12.72 12.72 0 015.38 1.14 10.52 10.52 0 014 3.11l-3.53 3.63a7.54 7.54 0 00-5.52-2.68 5.78 5.78 0 00-5.93 6 5.65 5.65 0 001.69 4.18 5.82 5.82 0 004.21 1.66 7.21 7.21 0 005.64-2.76l3.68 3.45a11.56 11.56 0 01-4.07 3.23 12.48 12.48 0 01-5.58 1.14zM227.73 121.52a11.42 11.42 0 01-8.22-3.2 11.13 11.13 0 010-15.77 12 12 0 0116.35 0 11.09 11.09 0 010 15.77 11.21 11.21 0 01-8.13 3.2zm0-5.38a5.62 5.62 0 004.09-1.62 5.5 5.5 0 001.67-4.1 5.66 5.66 0 00-1.73-4.1 5.76 5.76 0 00-8.1 8.2 5.62 5.62 0 004.04 1.62zM256.51 111.35V99.7H262v21.47h-4.19l-10-11.5v11.5h-5.42V99.7h4zM280.42 111.35V99.7h5.46v21.47h-4.18l-10-11.5v11.5h-5.4V99.7h4zM306 121.17h-15.79V99.7h15.84v5h-10.26v3.16h9.49v5h-9.49v3.25H306zM319.64 121.49a11.29 11.29 0 01-8-3 10.48 10.48 0 01-3.23-7.93 10.65 10.65 0 013.26-8 11.12 11.12 0 018-3.17 12.74 12.74 0 015.39 1.14 10.52 10.52 0 014 3.11l-3.53 3.63a7.54 7.54 0 00-5.52-2.68 5.79 5.79 0 00-5.94 6 5.66 5.66 0 001.7 4.18 5.81 5.81 0 004.21 1.66 7.24 7.24 0 005.64-2.76l3.68 3.45a11.65 11.65 0 01-4.07 3.23 12.49 12.49 0 01-5.59 1.14zM336.23 121.17v-16.24h-6.08V99.7h17.74v5.23h-6.06v16.24zM350.47 121.17V99.7h5.58v21.47zM370.73 121.52a11.42 11.42 0 01-8.22-3.2 11.13 11.13 0 010-15.77 12 12 0 0116.35 0 11.09 11.09 0 010 15.77 11.2 11.2 0 01-8.13 3.2zm0-5.38a5.66 5.66 0 004.1-1.62 5.53 5.53 0 001.66-4.1 5.69 5.69 0 00-1.72-4.1 5.83 5.83 0 00-8.1 0 5.86 5.86 0 000 8.17 5.6 5.6 0 004.03 1.65zM399.51 111.35V99.7H405v21.47h-4.18l-10-11.5v11.5h-5.43V99.7h4z" transform="translate(-8.64 -4.39)"/></g></svg>