<svg version="1.0" xmlns="http://www.w3.org/2000/svg" width="622.667" height="576" viewBox="0 0 467 432"><path d="M63.5 1.5c-13.6 3-25.5 9.2-36.6 19.1C15.8 30.5 7.7 43.2 2.8 58.4L.5 65.5V167c0 114.8-.5 107.1 8.1 124.1 8.3 16.2 20.4 28.1 36.9 36.3 15.8 7.9 15.6 7.9 63.5 8.5l42.5.6 67 44.9c36.9 24.7 68.8 46.2 70.9 47.8 3.9 2.8 6.6 3.6 6.6 1.9 0-.9-1.3-7.4-12.6-61.1-2.5-11.8-4.8-22.7-5.1-24.2-.9-4.3.4-7.4 3.4-8.7 1.9-.7 21.5-1.2 61.3-1.4 58.3-.2 58.5-.3 65.5-2.6 28.2-9.4 46.6-28.1 56.2-57.1 1.7-5.2 1.8-11.6 1.8-107.5 0-97-.1-102.3-1.9-109-3.6-13.3-11.2-26.1-21.3-36-11.1-10.9-20.8-16.6-35.5-20.9L399.5.1h-165C101.2.1 68.3.4 63.5 1.5z" fill="#2F549C"/></svg>